<?xml version="1.0" encoding="UTF-8"?>
<svg id="Layer_1" xmlns="http://www.w3.org/2000/svg" version="1.1" viewBox="0 0 421.6 151.7">
  <!-- Generator: Adobe Illustrator 30.0.0, SVG Export Plug-In . SVG Version: 2.1.1 Build 123)  -->
  <defs>
    <style>
      .st0 {
        fill: #f2c91d;
      }

      .st1 {
        fill: #0032a0;
      }
    </style>
  </defs>
  <g>
    <g>
      <path d="M198,56.4V5.9h20.4c4.2,0,7.7,1.3,10.5,3.8,2.8,2.5,4.3,5.7,4.3,9.5s-.6,4.8-1.9,6.7c-1.3,1.9-3,3.3-5.2,4.3v.2c2.6.8,4.7,2.2,6.4,4.3,1.6,2.1,2.5,4.5,2.5,7.3,0,4-1.5,7.4-4.4,10.2-2.9,2.8-6.6,4.1-11,4.1h-21.5ZM207.4,48.6h10.7c2,0,3.8-.7,5.2-2.1,1.4-1.4,2.2-3.1,2.2-5.1s-.7-3.8-2.2-5.1c-1.5-1.3-3.3-2-5.4-2h-13.3v-7h12.3c2.1,0,3.8-.7,5.1-2,1.3-1.3,2-2.9,2-4.7s-.7-3.4-2-4.7c-1.3-1.3-2.9-1.9-4.9-1.9h-9.8v34.7Z"/>
      <path d="M258.3,57.6c-5.6,0-10.1-1.8-13.5-5.4-3.4-3.6-5.2-8.2-5.2-13.9s1.7-10.1,5.2-13.8c3.4-3.6,7.9-5.5,13.3-5.5s9.5,1.6,12.9,4.8c3.3,3.2,5,7.3,5,12.3v3.9h-31.6v-5.3h22.7c-.1-2.4-1-4.4-2.6-5.9-1.6-1.6-3.7-2.3-6.3-2.3s-5.2,1-6.9,3.1c-1.7,2.1-2.6,4.9-2.6,8.4s1,6.7,3,8.9c2,2.2,4.6,3.3,7.7,3.3s2.7-.2,3.8-.6c1.1-.4,2.1-.9,2.9-1.6.9-.7,1.9-1.8,3-3.3l6,4.1c-1.6,2.4-3.1,4.1-4.7,5.2-1.6,1.1-3.3,2-5.2,2.6-1.9.6-4.2.9-6.9.9Z"/>
      <path d="M279.7,27.6v-7.3h10.5v7.3h-10.5ZM297,57.6c-3.6,0-6.4-1-8.5-3-2.1-2-3.1-4.9-3.1-8.6V10.3h9.3v34.2c0,1.8.4,3.2,1.1,4.1.8.9,1.9,1.3,3.4,1.3s.9,0,1.4-.1c.5,0,1.4-.4,2.9-.9v7.5c-1.7.5-2.9.8-3.7.9-.8.1-1.7.2-2.8.2ZM290.1,27.6v-7.3h24.4v7.3h-24.4ZM321.1,57.6c-3.6,0-6.4-1-8.5-3-2.1-2-3.1-4.9-3.1-8.6V10.3h9.3v34.2c0,1.8.4,3.2,1.1,4.1.8.9,1.9,1.3,3.4,1.3s.9,0,1.4-.1c.5,0,1.4-.4,2.9-.9v7.5c-1.7.5-2.9.8-3.7.9-.8.1-1.7.2-2.8.2ZM314.6,27.6v-7.3h12.9v7.3h-12.9Z"/>
      <path d="M350.9,57.6c-5.6,0-10.1-1.8-13.5-5.4-3.4-3.6-5.2-8.2-5.2-13.9s1.7-10.1,5.2-13.8c3.4-3.6,7.9-5.5,13.3-5.5s9.5,1.6,12.9,4.8c3.3,3.2,5,7.3,5,12.3v3.9h-31.6v-5.3h22.7c-.1-2.4-1-4.4-2.6-5.9-1.6-1.6-3.7-2.3-6.3-2.3s-5.2,1-6.9,3.1c-1.7,2.1-2.6,4.9-2.6,8.4s1,6.7,3,8.9c2,2.2,4.6,3.3,7.7,3.3s2.7-.2,3.8-.6c1.1-.4,2.1-.9,2.9-1.6.9-.7,1.9-1.8,3-3.3l6,4.1c-1.6,2.4-3.1,4.1-4.7,5.2-1.6,1.1-3.3,2-5.2,2.6-1.9.6-4.2.9-6.9.9Z"/>
      <path d="M375,56.4V20.3h8.9v6.8l-1.1-1.2h1.3c.7-2,2-3.6,3.9-4.9,1.9-1.3,4-1.9,6.1-1.9s1.3,0,2,.2c.7.1,1.6.3,2.7.7v8.9c-1.5-.5-2.6-.9-3.5-1-.8-.2-1.6-.2-2.3-.2-2.5,0-4.6.9-6.2,2.8-1.6,1.8-2.5,4.2-2.5,7v19.1h-9.3Z"/>
      <path d="M213.1,117.2c-3,0-5.7-.5-8.1-1.4-2.4-1-4.3-2.3-5.9-4-1.6-1.7-3.1-4.4-4.7-8.2l8.3-3.4c1.1,2.6,2.2,4.4,3.1,5.5.9,1.1,2.1,1.9,3.4,2.5,1.3.6,2.8.9,4.5.9,2.5,0,4.6-.6,6.2-1.9,1.6-1.3,2.4-3,2.4-5.1s-.9-3.4-2.6-4.7c-1.8-1.3-4.7-2.6-8.9-4-5.1-1.7-8.8-3.7-11-6.1-2.3-2.4-3.4-5.3-3.4-8.8s1.6-7.4,4.8-10.1c3.2-2.7,7.3-4,12.2-4s5,.4,7.1,1.1c2.1.8,3.9,1.9,5.4,3.3,1.5,1.4,2.9,3.5,4.3,6.3l-8,3.3c-.8-1.6-1.6-2.7-2.5-3.5-.8-.8-1.8-1.4-2.9-1.8s-2.4-.6-3.8-.6c-2.2,0-4,.5-5.3,1.6-1.4,1-2.1,2.4-2.1,4.1s.6,2.8,1.9,3.9,4.3,2.5,9.3,4c5.1,1.6,8.8,3.7,11.2,6.3,2.4,2.7,3.6,5.8,3.6,9.5s-1.7,8.4-5.1,11.2c-3.4,2.8-7.8,4.2-13.1,4.2Z"/>
      <path d="M255.1,117.2c-5.6,0-10.3-1.8-14-5.5-3.7-3.6-5.5-8.3-5.5-13.8s1.8-10.3,5.5-13.9,8.3-5.4,14-5.4,10.2,1.8,13.9,5.4c3.7,3.6,5.5,8.2,5.5,13.8s-1.8,10.2-5.5,13.8c-3.7,3.6-8.3,5.5-13.9,5.5ZM255.1,109.2c2.9,0,5.4-1.1,7.3-3.2,2-2.1,2.9-4.8,2.9-8.1s-1-6.1-3-8.2c-2-2.1-4.4-3.1-7.3-3.1s-5.4,1.1-7.4,3.2c-2,2.1-3,4.8-3,8.2s1,6,2.9,8.1c2,2.1,4.4,3.2,7.4,3.2Z"/>
      <path d="M281.1,116v-50.5h9.3v50.5h-9.3Z"/>
      <path d="M310,117.2c-4,0-7.2-1.1-9.6-3.3-2.4-2.2-3.6-5-3.6-8.6s1.4-6.7,4.3-8.8c2.9-2.2,6.6-3.2,11.1-3.2s3.7.2,5.4.6c1.7.4,3.1.9,4.3,1.5v-2.2c0-2.3-.8-4.1-2.3-5.4-1.6-1.4-3.7-2-6.3-2s-2.8.2-3.8.5c-1,.3-2,.8-2.9,1.3-.9.5-2,1.5-3.4,2.8l-5.1-5c2.3-2,4.1-3.4,5.5-4.2,1.4-.8,2.9-1.4,4.6-1.8,1.7-.4,3.7-.7,5.9-.7,5.3,0,9.4,1.3,12.3,3.8,2.9,2.6,4.4,6.1,4.4,10.8v22.7h-8.9v-8l2.4,3.3h-2.6c-1.1,1.7-2.6,3.1-4.7,4.2-2.1,1.1-4.4,1.7-6.9,1.7ZM312.4,110.6c2.7,0,5-1,6.8-2.9s2.7-4.4,2.7-7.4c-1-.6-2.2-1.1-3.6-1.4s-2.8-.5-4.3-.5c-2.5,0-4.5.5-6.1,1.6-1.6,1.1-2.3,2.7-2.3,4.8s.6,3.3,1.9,4.3c1.3,1,2.9,1.6,4.9,1.6Z"/>
      <path d="M339.1,79.8h8.9v6.6l-1.1-1.3h1.3c1.1-2,2.8-3.5,5-4.7s4.5-1.8,6.9-1.8c4.1,0,7.3,1.2,9.6,3.7,2.3,2.4,3.5,5.8,3.5,10v23.7h-9.3v-21.7c0-2.6-.6-4.5-1.9-5.9s-3.1-2-5.5-2-4.2.9-5.8,2.7c-1.5,1.8-2.3,4-2.3,6.5v20.3h-9.3v-36.1Z"/>
      <path d="M398.9,117.2c-5.6,0-10.3-1.8-14-5.5-3.7-3.6-5.5-8.3-5.5-13.8s1.8-10.3,5.5-13.9,8.3-5.4,14-5.4,10.2,1.8,13.9,5.4c3.7,3.6,5.5,8.2,5.5,13.8s-1.8,10.2-5.5,13.8c-3.7,3.6-8.3,5.5-13.9,5.5ZM398.9,109.2c2.9,0,5.4-1.1,7.3-3.2,2-2.1,2.9-4.8,2.9-8.1s-1-6.1-3-8.2c-2-2.1-4.4-3.1-7.3-3.1s-5.4,1.1-7.4,3.2c-2,2.1-3,4.8-3,8.2s1,6,2.9,8.1c2,2.1,4.4,3.2,7.4,3.2Z"/>
    </g>
    <g>
      <path d="M364.2,139c-.8,0-1.4-.3-1.9-.8s-.8-1.2-.8-1.9.3-1.4.8-1.9,1.2-.8,1.9-.8,1.4.3,1.9.8.8,1.2.8,1.9-.3,1.4-.8,1.9-1.2.8-1.9.8Z"/>
      <path d="M378,139.3c-2.5,0-4.6-.8-6.3-2.5-1.6-1.6-2.5-3.7-2.5-6.2s.8-4.6,2.5-6.3,3.7-2.4,6.3-2.4,4.6.8,6.3,2.4c1.7,1.6,2.5,3.7,2.5,6.2s-.8,4.6-2.5,6.2c-1.7,1.6-3.7,2.5-6.3,2.5ZM378,135.7c1.3,0,2.4-.5,3.3-1.4.9-1,1.3-2.2,1.3-3.7s-.4-2.7-1.3-3.7c-.9-.9-2-1.4-3.3-1.4s-2.4.5-3.3,1.4c-.9.9-1.3,2.2-1.3,3.7s.4,2.7,1.3,3.7c.9,1,2,1.4,3.3,1.4Z"/>
      <path d="M389.7,138.7v-16.3h4v3.1l-.5-.5h.6c.3-.9.9-1.6,1.7-2.2.9-.6,1.8-.9,2.8-.9s.6,0,.9,0c.3,0,.7.2,1.2.3v4c-.7-.2-1.2-.4-1.6-.5-.4,0-.7-.1-1-.1-1.1,0-2.1.4-2.8,1.3-.7.8-1.1,1.9-1.1,3.1v8.6h-4.2Z"/>
      <path d="M409.7,146.2c-1.1,0-2.1-.1-3.1-.4-.9-.3-1.7-.7-2.5-1.2-.7-.5-1.5-1.5-2.3-2.8l3.3-1.7c.6.9,1,1.5,1.4,1.8.4.3.9.6,1.4.7.5.2,1.1.2,1.6.2,1.5,0,2.6-.4,3.4-1.3.8-.8,1.2-2,1.2-3.5v-1.7h0c-.6.8-1.3,1.4-2.2,1.9-.9.4-1.9.7-3,.7-2.2,0-4-.8-5.4-2.3-1.4-1.5-2.1-3.6-2.1-6.2s.7-4.6,2.2-6.2c1.5-1.6,3.3-2.3,5.5-2.3s2.1.2,3,.7c.9.4,1.7,1.1,2.2,1.9h1l-1,1v-3h4v15.4c0,2.7-.8,4.7-2.3,6.1-1.5,1.4-3.6,2.1-6.3,2.1ZM409.8,135.4c1.3,0,2.3-.5,3.2-1.4.8-.9,1.2-2.1,1.2-3.7s-.4-2.7-1.2-3.6c-.8-.9-1.9-1.4-3.2-1.4s-2.3.5-3.2,1.3c-.8.9-1.3,2.1-1.3,3.6s.4,2.8,1.3,3.7c.8.9,1.9,1.3,3.2,1.3Z"/>
    </g>
  </g>
  <g>
    <path class="st0" d="M14.3,29.6l-.4-6.8c0-.9.7-1.7,1.6-1.6l7.6.5c.4,0,.8.2,1.1.6l17.4,21.8c0,0,.2-.1.3-.2,0,0,0,0,.1-.1.2-.1.3-.2.5-.4,0,0,0,0,.1,0,.2-.1.4-.3.6-.4.1-.1.3-.2.4-.3l-13-18.6c-.8-1.1.1-2.6,1.4-2.4l1.9.2c.5,0,.9.3,1.2.8l10.9,18.5c.1,0,.2-.1.4-.2,0,0,0,0,.1,0,.2-.1.4-.2.6-.3.2-.1.4-.2.6-.3t0,0c0,0,.2,0,.2-.1,0,0,0,0,0,0,0,0,.1,0,.2,0,.1,0,.2-.1.3-.2.2,0,.3-.2.5-.2.2,0,.3-.1.5-.2,0,0,0,0,.1,0,.2,0,.4-.1.6-.2,0,0,.1,0,.2,0,.2,0,.4-.2.6-.2.2,0,.4-.2.6-.2,0,0,.1,0,.2,0,.2,0,.3-.1.5-.2,0,0,.1,0,.2,0,0,0,0,0,0,0,0,0,0,0,0,0l-5.2-20.9c-.1-.5,0-1,.3-1.4l1.2-1.5c.8-1,2.5-.6,2.7.7l3.7,22.3h0c.2,0,.5,0,.7-.1,0,0,0,0,0,0,.2,0,.5,0,.7-.1.2,0,.5,0,.7,0,0,0,.2,0,.2,0l-3.1-27.7c0-.4,0-.9.4-1.2l5.1-5.7c.6-.7,1.7-.7,2.3,0l5.1,5.7c.3.3.4.8.4,1.2l-3.1,27.7c.2,0,.3,0,.5,0,.2,0,.5,0,.7,0,.3,0,.5,0,.8.1,0,0,0,0,0,0,.2,0,.3,0,.5,0l3.9-22.3c.2-1.3,1.9-1.7,2.7-.7l1.2,1.5c.3.4.4.9.3,1.4l-5.4,20.8c.2,0,.3,0,.5.1,0,0,0,0,0,0,.2,0,.4.1.6.2,0,0,.1,0,.2,0,.2,0,.4.1.6.2.2,0,.4.2.6.2,0,0,.1,0,.2,0,.2,0,.4.1.5.2,0,0,0,0,.1,0,.2,0,.3.2.5.2.2,0,.3.2.5.2.2,0,.3.2.5.2.1,0,.2.1.4.2.2,0,.4.2.6.3.2.1.4.2.6.3,0,0,.2.1.3.2l11.1-18.4c.3-.4.7-.7,1.2-.8l2-.2c1.3-.1,2.2,1.4,1.4,2.5l-13.2,18.4h0c.2.1.4.3.6.4.2.1.4.3.6.4,0,0,0,0,.1,0,.2.1.3.2.5.4,0,0,0,0,.1.1,0,0,0,0,0,0t0,0l17.4-21.8c.3-.3.7-.6,1.1-.6l7.7-.4c.9,0,1.7.7,1.6,1.6l-.5,7.6c0,.4-.2.8-.6,1.1l-21.8,17.4c0,0,.1.2.2.3,0,0,0,0,.1.1.1.2.3.4.4.6.2.2.3.4.4.6,0,0,0,0,0,0,0,.1.2.3.3.4h0l18.6-13c1.1-.8,2.6.1,2.4,1.4l-.2,1.9c0,.5-.3.9-.8,1.2l-18.5,10.9c0,0,0,.2.1.2,0,0,0,.1.1.2.1.2.2.4.3.6,0,0,0,.2.1.2,0,.2.2.3.2.5,0,0,0,0,0,.1.1.2.2.4.3.6,0,.2.2.4.3.6,0,.1,0,.2.1.3,0,.2.2.4.2.5,0,0,0,0,0,0,0,.2.1.3.2.5,0,.2.1.4.2.6,0,.2.2.5.2.7,0,.2.1.4.2.7,0,0,0,.1,0,.2,0,0,0,.1,0,.2l20.8-5.2c.5-.1,1,0,1.4.3l1.5,1.2c1,.9.6,2.5-.7,2.7l-22.3,3.7h0c0,.3,0,.5.1.8,0,0,0,0,0,0,0,.2,0,.5.1.7,0,.3,0,.5,0,.8,0,0,0,0,0,0l-8.4,1.4c0,0-.2,0-.3,0l-12.7-.2c-.2,0-.3,0-.5,0l-24.8-9c-.2,0-.3-.2-.5-.3L14.3,29.6Z"/>
    <path class="st0" d="M109.9,68.6c-.5-1.2-4.2-1-5.5-.4-.5.2-1.3.6-1.9.9-.9.4-1.9-.2-2.3-1.3l-.5-1.9c-.2-.5-.5-.9-.8-1.1l21.1-2.4c-.5.7-.7,1.5-.6,2.1,0,.8-.3,1.4-.9,1.8-.3.2-.5.4-.6.5-.2.4-1,0-1.3.6-.3.7-1.4,2.9-2.1,2-.7-.9-2.2-1-2.7-.2s-1.3.5-1.9-.7Z"/>
    <path class="st1" d="M180.4,104.2c-1.3,3.6-3.9,10.5-4.8,12.8-1.1,2.8-7.2,10.5-8.5,12.1-.2.2-.3.3-.6.5l-7.8,4c-.1,0-.3.2-.4.3l-3.7,3.4c0,0-.1.1-.2.1-.8.5-5.9,3.9-11.2,5.6-4.8,1.6-12.7,3.8-15,4.5-.5.1-.8.4-1,.8l-.6,1c-.4.8-1.4,1.1-2.2.8l-32.8-14.3c-.6-.3-1-.9-1-1.6v-1.9c0-.7-.5-1.3-1.1-1.6l-15.6-6.9-2.3-1-3.9-1.7-11.1-4.9-3.3-1.4-1.3-.6c-.2,0-.4-.2-.5-.3l-1.7-1.6-1.7-1.7c-.5-.5-.6-1.2-.4-1.8l.3-1c.2-.6,0-1.3-.3-1.7l-4.2-4.6-2.3-2.5-1.9-2-3.3-3.6-1.8-2c0,0-.1-.1-.2-.2-.3-.2-.6-.3-.9-.3l-3-.3-5.7-.5-20.3-2c-.8,0-1.5-.8-1.6-1.6v-.6s-.6-10.3-.6-10.3l-.3-5.4c0-.1,0-.2,0-.3l.8-7.5,2.7-25.7c.1-1.3,1.7-2,2.7-1.2l6.4,4.6,13,9.4,6,4.3,13.9,10.1c.2.1.3.2.5.3l24.4,7.5c.2,0,.3,0,.5,0h12.5c0,.1.2.1.3.1l12.2-1.8c.8-.1,1.6.4,1.9,1.2l.5,1.6c0,0,0,.1,0,.2.4.8,1.3,1.2,2.1.9.4-.2.9-.3,1.3-.5.2,0,.4-.2.6-.2,1.3-.5,4.9-.7,5.4.3.1.3.3.5.5.6.4.3.9.4,1.2.1,0,0,.1-.1.2-.2.5-.6,2-.6,2.7.2.6.8,1.7-1.1,2-1.6.3-.6,1.1-.2,1.3-.6,0-.1.3-.3.6-.5.5-.3.9-.9.9-1.5,0-.6.1-1.3.7-1.9,1.2-1.2,3.2-.8,3.5-1.4.3-.6-.5-2-.5-2.6,0-.3.5-.8.9-1.2.3-.2.5-.4.5-.4l14.4,4.7c.3.1.6.3.9.6l22.9,31.4c.3.5.9.7,1.4.7s.2,0,.3,0c.4,0,.8-.3,1.1-.7.5-.6,1.2-.8,1.9-.6.1,0,.3.1.4.2l3.1,2c.2.2.5.3.9.3h.2s7.5.4,7.5.4c.5,0,.9.2,1.2.5.4.5.6,1.1.4,1.8Z"/>
  </g>
</svg>