<?xml version="1.0" encoding="UTF-8"?>
<svg id="better-solano" xmlns="http://www.w3.org/2000/svg" version="1.1" viewBox="0 0 250 250">
  <!-- Generator: Adobe Illustrator 30.0.0, SVG Export Plug-In . SVG Version: 2.1.1 Build 123)  -->
  <defs>
    <style>
      .st0 {
        fill: #f2c91d;
      }

      .st1 {
        fill: #f1f2f2;
      }

      .st2 {
        fill: #0032a0;
      }
    </style>
  </defs>
  <rect class="st1" x="3.9" y="3.9" width="242.3" height="242.3" rx="72.8" ry="72.8"/>
  <g>
    <path class="st0" d="M29.9,66.1l-.4-8.4c0-1.2.9-2.1,2-2l9.4.6c.5,0,1,.3,1.4.7l21.5,26.9c.1,0,.2-.2.3-.3,0,0,.1,0,.2-.1.2-.2.4-.3.6-.4,0,0,0,0,.2-.1.2-.2.5-.4.7-.5.2-.1.4-.3.5-.4l-16.1-22.9c-.9-1.4.1-3.2,1.8-3l2.4.3c.6,0,1.1.4,1.4.9l13.4,22.9c.1,0,.3-.2.4-.2,0,0,.1,0,.2,0,.3-.1.5-.3.8-.4.2-.1.5-.3.7-.4t0,0c0,0,.2,0,.3-.1,0,0,0,0,.1,0,0,0,.1,0,.2,0,.1,0,.3-.1.4-.2.2,0,.4-.2.7-.3.2,0,.4-.2.6-.3,0,0,0,0,.1,0,.2,0,.5-.2.7-.3,0,0,.2,0,.3-.1.3,0,.5-.2.8-.3.3,0,.5-.2.8-.3,0,0,.2,0,.3,0,.2,0,.4-.1.6-.2,0,0,.2,0,.3,0,0,0,0,0,0,0,0,0,0,0,0,0l-6.4-25.8c-.1-.6,0-1.2.4-1.7l1.5-1.9c1-1.3,3.1-.7,3.4.9l4.5,27.6h0c.3,0,.6-.1.9-.2,0,0,0,0,0,0,.3,0,.6,0,.9-.1.3,0,.6,0,.9-.1,0,0,.2,0,.3,0l-3.8-34.3c0-.5.1-1.1.5-1.5l6.3-7.1c.8-.9,2.1-.9,2.9,0l6.3,7.1c.4.4.5.9.5,1.5l-3.8,34.3c.2,0,.4,0,.6,0,.3,0,.6,0,.9.1.3,0,.6,0,.9.1,0,0,0,0,0,0,.2,0,.4,0,.6.1l4.9-27.6c.3-1.6,2.4-2.1,3.4-.9l1.5,1.9c.4.5.5,1.1.4,1.7l-6.7,25.7c.2,0,.4.1.6.2,0,0,0,0,0,0,.3,0,.5.1.8.2,0,0,.2,0,.3,0,.3,0,.5.2.8.3.3,0,.5.2.8.3,0,0,.2,0,.3.1.2,0,.4.2.7.3,0,0,0,0,.1,0,.2,0,.4.2.6.3.2,0,.4.2.7.3.2,0,.4.2.6.3.2,0,.3.1.5.2.2.1.5.2.7.4.3.1.5.3.8.4.1,0,.2.1.3.2l13.7-22.8c.3-.5.8-.9,1.5-.9l2.4-.2c1.6-.2,2.7,1.7,1.8,3l-16.3,22.7h0c.3.2.5.4.8.5.2.2.5.4.7.5,0,0,.1,0,.2.1.2.1.4.3.6.4,0,0,.1,0,.2.1,0,0,0,0,0,0t0,0l21.5-27c.3-.4.8-.7,1.4-.7l9.5-.5c1.2,0,2.1.9,2,2l-.6,9.4c0,.5-.3,1-.7,1.4l-27,21.5c0,.1.2.2.3.3,0,0,0,0,.1.2.2.2.4.5.5.7.2.2.4.5.5.7,0,0,0,0,0,0,.1.2.2.4.4.5h0l22.9-16.1c1.3-.9,3.2.1,3,1.8l-.3,2.4c0,.6-.4,1.1-.9,1.4l-22.9,13.4c0,0,0,.2.1.3,0,0,0,.2.1.3.1.2.3.5.4.7,0,0,.1.2.2.3,0,.2.2.4.3.6,0,0,0,0,0,.1.1.2.2.5.4.8.1.2.2.5.3.7,0,.1.1.3.2.4,0,.2.2.4.3.7,0,0,0,0,0,0,0,.2.2.4.2.7,0,.2.2.5.3.7.1.3.2.6.3.9,0,.3.2.5.3.8,0,0,0,.1,0,.2,0,0,0,.1,0,.2l25.8-6.4c.6-.2,1.2,0,1.7.4l1.9,1.5c1.3,1.1.7,3.1-.9,3.4l-27.6,4.5h0c0,.4.1.7.2.9,0,0,0,0,0,0,0,.3,0,.6.1.9,0,.3,0,.6.1.9,0,0,0,0,0,.1l-10.4,1.8c-.1,0-.2,0-.3,0l-15.7-.2c-.2,0-.4,0-.6-.1l-30.7-11.1c-.2,0-.4-.2-.6-.4l-40-34.1Z"/>
    <path class="st0" d="M148.2,114.3c-.7-1.5-5.2-1.2-6.8-.5-.7.3-1.6.7-2.4,1.1-1.1.5-2.4-.2-2.8-1.6l-.7-2.3c-.2-.6-.6-1.1-1-1.4l26-2.9c-.7.8-.8,1.8-.8,2.6,0,.9-.4,1.8-1.1,2.2-.3.2-.6.5-.7.7-.2.5-1.2,0-1.6.8-.4.8-1.7,3.6-2.6,2.4-.8-1.1-2.8-1.2-3.3-.3s-1.6.6-2.3-.9Z"/>
    <path class="st2" d="M235.3,158.4c-1.6,4.4-4.8,13-5.9,15.9-1.4,3.5-8.9,13-10.5,15-.2.2-.4.4-.7.6l-9.7,4.9c-.2,0-.3.2-.5.3l-4.6,4.2c0,0-.1.1-.2.2-.9.6-7.3,4.8-13.8,6.9-6,2-15.6,4.7-18.6,5.5-.6.2-1,.5-1.3,1l-.7,1.3c-.5,1-1.7,1.4-2.7.9l-40.5-17.7c-.8-.3-1.3-1.1-1.3-1.9v-2.3c0-.8-.6-1.6-1.3-1.9l-19.3-8.5-2.8-1.2-4.8-2.1-13.7-6-4.1-1.8-1.6-.7c-.2,0-.4-.2-.6-.4l-2.1-2-2.1-2c-.6-.6-.8-1.4-.5-2.2l.4-1.2c.3-.8,0-1.6-.4-2.1l-5.2-5.6-2.8-3.1-2.3-2.5-4.1-4.5-2.2-2.4c0,0-.2-.2-.3-.3-.3-.2-.7-.4-1.1-.4l-3.7-.4-7-.7-25.1-2.4c-1,0-1.9-.9-1.9-2v-.7s-.8-12.7-.8-12.7l-.4-6.7c0-.1,0-.2,0-.4l1-9.3,3.4-31.7c.2-1.6,2.1-2.5,3.4-1.5l7.9,5.7,16.1,11.6,7.4,5.3,17.2,12.4c.2.1.4.2.6.3l30.2,9.2c.2,0,.4,0,.6,0l15.5.2c.1,0,.2,0,.3,0l15.1-2.2c1-.1,2,.4,2.3,1.4l.7,1.9c0,0,0,.2.1.2.4,1,1.6,1.5,2.6,1.1.5-.2,1.1-.4,1.6-.6.3-.1.5-.2.7-.3,1.6-.6,6-.8,6.7.4.2.3.4.6.6.8.5.4,1.1.5,1.5.2,0,0,.2-.1.2-.2.6-.8,2.5-.7,3.3.2.8.9,2.2-1.3,2.5-2,.4-.7,1.4-.2,1.6-.7,0-.2.4-.4.7-.6.7-.4,1.1-1.1,1.1-1.9,0-.7.1-1.6.9-2.3,1.5-1.4,3.9-.9,4.3-1.7.4-.8-.7-2.5-.6-3.2,0-.4.6-1,1.1-1.4.3-.3.6-.5.6-.5l17.9,5.9c.4.1.8.4,1.1.8l28.3,38.9c.4.6,1.1.9,1.7.9s.2,0,.3,0c.5,0,1-.3,1.4-.8.6-.8,1.5-1,2.4-.7.2,0,.3.1.5.2l3.8,2.4c.3.2.7.3,1.1.3h.2s9.3.5,9.3.5c.6,0,1.1.3,1.4.6.5.6.8,1.4.5,2.2Z"/>
  </g>
</svg>